PathFileType	4	(X/Y/Z)	pose_F01_0-96.trc
DataRate	CameraRate	NumFrames	NumMarkers	Units	OrigDataRate	OrigDataStartFrame	OrigNumFrames
30	30	11	21	m	30	24	96
Frame#	Time	CHip			RHip			RKnee			RAnkle			RBigToe			RSmallToe			RHeel			LHip			LKnee			LAnkle			LBigToe			LSmallToe			LHeel			Neck			Nose			RShoulder			RElbow			RWrist			LShoulder			LElbow			LWrist			
		X1	Y1	Z1	X2	Y2	Z2	X3	Y3	Z3	X4	Y4	Z4	X5	Y5	Z5	X6	Y6	Z6	X7	Y7	Z7	X8	Y8	Z8	X9	Y9	Z9	X10	Y10	Z10	X11	Y11	Z11	X12	Y12	Z12	X13	Y13	Z13	X14	Y14	Z14	X15	Y15	Z15	X16	Y16	Z16	X17	Y17	Z17	X18	Y18	Z18	X19	Y19	Z19	X20	Y20	Z20	X21	Y21	Z21	
24	0.8	-0.29134432720149295	1.8282897590596003	-0.6201639551886418	-0.29926708753693454	1.8268210948964685	-0.5647257677782751	-0.31704861191625777	1.705899328374923	-0.5347743225542485	-0.36673593720080355	1.5795482896200868	-0.4582457043266613	-0.23320361461876582	1.5258714855737603	-0.4397652411303089	-0.3380570924241324	1.55674255346949	-0.4352741472630708	-0.38546323006579153	1.5624056037435488	-0.4509915012230233	-0.2863730155703597	1.8293057887778048	-0.6792718410112955	-0.30433188674599443	1.7004489702136256	-0.6595051164784014													-0.3047608029070196	1.9834360418878088	-0.6428669812516872	-0.2651037059771218	2.05682921236622	-0.6703466707484967	-0.30994340480932353	1.980919068333506	-0.5629055786761199	-0.3182215225384462	1.8944849790446898	-0.5179792450716242	-0.3055549289226106	1.8204510901447652	-0.47932815820890295	-0.2913615259766298	1.9873494899840416	-0.7290311171961285	-0.9402264709084451	1.8399263299058801	-0.14862139418114845	-1.0452619464434227	1.8203761524869155	0.047643039151512995
25	0.8333333333333334	-0.29134432720149295	1.8282897590596003	-0.6201639551886418	-0.29926708753693454	1.8268210948964685	-0.5647257677782751	-0.31704861191625777	1.705899328374923	-0.5347743225542485	-0.36673593720080355	1.5795482896200868	-0.4582457043266613	-0.23320361461876582	1.5258714855737603	-0.4397652411303089	-0.3380570924241324	1.55674255346949	-0.4352741472630708	-0.38546323006579153	1.5624056037435488	-0.4509915012230233	-0.2863730155703597	1.8293057887778048	-0.6792718410112955	-0.30433188674599443	1.7004489702136256	-0.6595051164784014													-0.3047608029070196	1.9834360418878088	-0.6428669812516872	-0.2651037059771218	2.05682921236622	-0.6703466707484967	-0.30994340480932353	1.980919068333506	-0.5629055786761199	-0.3182215225384462	1.8944849790446898	-0.5179792450716242	-0.3055549289226106	1.8204510901447652	-0.47932815820890295	-0.2913615259766298	1.9873494899840416	-0.7290311171961285	-0.9402264709084451	1.8399263299058801	-0.14862139418114845	-1.0452619464434227	1.8203761524869155	0.047643039151512995
26	0.8666666666666667	-0.29134432720149295	1.8282897590596003	-0.6201639551886418	-0.29926708753693454	1.8268210948964685	-0.5647257677782751	-0.31704861191625777	1.705899328374923	-0.5347743225542485	-0.36673593720080355	1.5795482896200868	-0.4582457043266613	-0.23320361461876582	1.5258714855737603	-0.4397652411303089	-0.3380570924241324	1.55674255346949	-0.4352741472630708	-0.38546323006579153	1.5624056037435488	-0.4509915012230233	-0.2863730155703597	1.8293057887778048	-0.6792718410112955	-0.30433188674599443	1.7004489702136256	-0.6595051164784014													-0.3047608029070196	1.9834360418878088	-0.6428669812516872	-0.2651037059771218	2.05682921236622	-0.6703466707484967	-0.30994340480932353	1.980919068333506	-0.5629055786761199	-0.3182215225384462	1.8944849790446898	-0.5179792450716242	-0.3055549289226106	1.8204510901447652	-0.47932815820890295	-0.2913615259766298	1.9873494899840416	-0.7290311171961285	-0.9402264709084451	1.8399263299058801	-0.14862139418114845	-1.0452619464434227	1.8203761524869155	0.047643039151512995
27	0.9	-0.29134432720149295	1.8282897590596003	-0.6201639551886418	-0.29926708753693454	1.8268210948964685	-0.5647257677782751	-0.31704861191625777	1.705899328374923	-0.5347743225542485	-0.36673593720080355	1.5795482896200868	-0.4582457043266613	-0.23320361461876582	1.5258714855737603	-0.4397652411303089	-0.3380570924241324	1.55674255346949	-0.4352741472630708	-0.38546323006579153	1.5624056037435488	-0.4509915012230233	-0.2863730155703597	1.8293057887778048	-0.6792718410112955	-0.30433188674599443	1.7004489702136256	-0.6595051164784014													-0.3047608029070196	1.9834360418878088	-0.6428669812516872	-0.2651037059771218	2.05682921236622	-0.6703466707484967	-0.30994340480932353	1.980919068333506	-0.5629055786761199	-0.3182215225384462	1.8944849790446898	-0.5179792450716242	-0.3055549289226106	1.8204510901447652	-0.47932815820890295	-0.2913615259766298	1.9873494899840416	-0.7290311171961285	-0.9402264709084451	1.8399263299058801	-0.14862139418114845	-1.0452619464434227	1.8203761524869155	0.047643039151512995
28	0.9333333333333333	-0.29134432720149295	1.8282897590596003	-0.6201639551886418	-0.29926708753693454	1.8268210948964685	-0.5647257677782751	-0.31704861191625777	1.705899328374923	-0.5347743225542485	-0.36673593720080355	1.5795482896200868	-0.4582457043266613	-0.23320361461876582	1.5258714855737603	-0.4397652411303089	-0.3380570924241324	1.55674255346949	-0.4352741472630708	-0.38546323006579153	1.5624056037435488	-0.4509915012230233	-0.2863730155703597	1.8293057887778048	-0.6792718410112955	-0.30433188674599443	1.7004489702136256	-0.6595051164784014													-0.3047608029070196	1.9834360418878088	-0.6428669812516872	-0.2651037059771218	2.05682921236622	-0.6703466707484967	-0.30994340480932353	1.980919068333506	-0.5629055786761199	-0.3182215225384462	1.8944849790446898	-0.5179792450716242	-0.3055549289226106	1.8204510901447652	-0.47932815820890295	-0.2913615259766298	1.9873494899840416	-0.7290311171961285	-0.9402264709084451	1.8399263299058801	-0.14862139418114845	-1.0452619464434227	1.8203761524869155	0.047643039151512995
29	0.9666666666666667	-0.29134432720149295	1.8282897590596003	-0.6201639551886418	-0.29926708753693454	1.8268210948964685	-0.5647257677782751	-0.31704861191625777	1.705899328374923	-0.5347743225542485	-0.36673593720080355	1.5795482896200868	-0.4582457043266613	-0.23320361461876582	1.5258714855737603	-0.4397652411303089	-0.3380570924241324	1.55674255346949	-0.4352741472630708	-0.38546323006579153	1.5624056037435488	-0.4509915012230233	-0.2863730155703597	1.8293057887778048	-0.6792718410112955	-0.30433188674599443	1.7004489702136256	-0.6595051164784014													-0.3047608029070196	1.9834360418878088	-0.6428669812516872	-0.2651037059771218	2.05682921236622	-0.6703466707484967	-0.30994340480932353	1.980919068333506	-0.5629055786761199	-0.3182215225384462	1.8944849790446898	-0.5179792450716242	-0.3055549289226106	1.8204510901447652	-0.47932815820890295	-0.2913615259766298	1.9873494899840416	-0.7290311171961285	-0.9402264709084451	1.8399263299058801	-0.14862139418114845	-1.0452619464434227	1.8203761524869155	0.047643039151512995
30	1.0	-0.29134432720149295	1.8282897590596003	-0.6201639551886418	-0.29926708753693454	1.8268210948964685	-0.5647257677782751	-0.31704861191625777	1.705899328374923	-0.5347743225542485	-0.36673593720080355	1.5795482896200868	-0.4582457043266613	-0.23320361461876582	1.5258714855737603	-0.4397652411303089	-0.3380570924241324	1.55674255346949	-0.4352741472630708	-0.38546323006579153	1.5624056037435488	-0.4509915012230233	-0.2863730155703597	1.8293057887778048	-0.6792718410112955	-0.30433188674599443	1.7004489702136256	-0.6595051164784014													-0.3047608029070196	1.9834360418878088	-0.6428669812516872	-0.2651037059771218	2.05682921236622	-0.6703466707484967	-0.30994340480932353	1.980919068333506	-0.5629055786761199	-0.3182215225384462	1.8944849790446898	-0.5179792450716242	-0.3055549289226106	1.8204510901447652	-0.47932815820890295	-0.2913615259766298	1.9873494899840416	-0.7290311171961285	-0.9402264709084451	1.8399263299058801	-0.14862139418114845	-1.0452619464434227	1.8203761524869155	0.047643039151512995
31	1.0333333333333334	-0.29134432720149295	1.8282897590596003	-0.6201639551886418	-0.29926708753693454	1.8268210948964685	-0.5647257677782751	-0.31704861191625777	1.705899328374923	-0.5347743225542485	-0.36673593720080355	1.5795482896200868	-0.4582457043266613	-0.23320361461876582	1.5258714855737603	-0.4397652411303089	-0.3380570924241324	1.55674255346949	-0.4352741472630708	-0.38546323006579153	1.5624056037435488	-0.4509915012230233	-0.2863730155703597	1.8293057887778048	-0.6792718410112955	-0.30433188674599443	1.7004489702136256	-0.6595051164784014													-0.3047608029070196	1.9834360418878088	-0.6428669812516872	-0.2651037059771218	2.05682921236622	-0.6703466707484967	-0.30994340480932353	1.980919068333506	-0.5629055786761199	-0.3182215225384462	1.8944849790446898	-0.5179792450716242	-0.3055549289226106	1.8204510901447652	-0.47932815820890295	-0.2913615259766298	1.9873494899840416	-0.7290311171961285	-0.9402264709084451	1.8399263299058801	-0.14862139418114845	-1.0452619464434227	1.8203761524869155	0.047643039151512995
32	1.0666666666666667	-0.3010962423655407	1.8327720137517578	-0.6066553989679567	-0.30811883267795204	1.832210930151848	-0.5480281929724874	-0.3287579771721095	1.703689411416184	-0.5091139982009069	-0.36673593720080355	1.5795482896200868	-0.4582457043266613	-0.23320361461876582	1.5258714855737603	-0.4397652411303089	-0.3445363001970197	1.5524543203089924	-0.418782077622727	-0.38546323006579153	1.5624056037435488	-0.4509915012230233	-0.2900680764946473	1.8354191019029085	-0.6721693731167214	-0.3073697083347093	1.7007528485698789	-0.6562265552724176													-0.30490013839347213	1.9844817565821098	-0.634461540831392	-0.26563797170799675	2.0513594152002885	-0.6611690251269193	-0.313912398673779	1.9785336223771275	-0.5494649845451546	-0.31563817789931686	1.8946194245558732	-0.5029624934208119	-0.30167463947817347	1.8225425299140423	-0.47012554849930255	-0.29618623469990396	1.9851135024985118	-0.7161918014822729	-0.9499950534565729	1.835074484493822	-0.131466902509304	-1.05910035039137	1.8519831284922919	0.03165664169517834
33	1.1	-0.3034414413890517	1.829622638995582	-0.5951872559711833	-0.30885639752826094	1.8272428979174493	-0.5335199178614303	-0.3315341285723802	1.7007913582806093	-0.5016418410842123	-0.3678349348450043	1.57438992576228	-0.45209318522269326	-0.23320361461876582	1.5258714855737603	-0.4397652411303089	-0.3500664975117982	1.5499393273114943	-0.41266365718677384	-0.38546323006579153	1.5624056037435488	-0.4509915012230233	-0.29597700485627254	1.8314435142961163	-0.6533387149239611	-0.3076811586265997	1.701875336308845	-0.6476385945426988													-0.3105247539949137	1.9809144683017874	-0.6162695315344099	-0.2727013754543552	2.0492740500359226	-0.6381739477850659	-0.32011936427593246	1.977229245728382	-0.5345901837837324	-0.32511286673541856	1.892399239272648	-0.48875056905255615	-0.30085920849243575	1.8255475599223587	-0.4582355569460287	-0.3020741625168955	1.9852252319676895	-0.6981898754263206	-0.9887345868682276	1.8333894943602296	-0.07616739810778038	-0.2555096069227007	1.9426524326014754	-0.7534661838786966
34	1.1333333333333333	-0.31215935075927376	1.8306444716135803	-0.5695224802051924	-0.3224519240509061	1.8279920115975672	-0.5150175549839802	-0.3442483367339467	1.7010131627278906	-0.48840025522370295	-0.36950648755400184	1.5716965857777976	-0.45234856875357166	-0.23320361461876582	1.5258714855737603	-0.4397652411303089	-0.34910496718543715	1.5476311006725216	-0.4090031520487021	-0.38546323006579153	1.5624056037435488	-0.4509915012230233	-0.29868730497281476	1.8318099640077063	-0.6341467478145553	-0.3030184947939424	1.7028425188418774	-0.6313196882420171													-0.31581724404141875	1.9810999128649545	-0.5981899016994405	-0.2771075932752454	2.0452963894070595	-0.6244946913546607	-0.32811310209605976	1.9766354204420902	-0.5175761963235113	-0.3269207859814527	1.895699971717071	-0.4783045160430376	-0.30278683221818614	1.8289140129503636	-0.4476211321061065	-0.2995643406279025	1.9837989103819862	-0.6803050770796711	-1.0337359010329392	1.8291255127721253	-0.009758398588925875	-0.26726348843208897	1.951770047290831	-0.7266339825958269
